<svg xmlns="http://www.w3.org/2000/svg" viewBox="0 0 512 512" width="512" height="512">
  <defs>
    <linearGradient id="maskableGradient" x1="0%" y1="0%" x2="100%" y2="100%">
      <stop offset="0%" style="stop-color:#FFE55C;stop-opacity:1" />
      <stop offset="100%" style="stop-color:#F9D71C;stop-opacity:1" />
    </linearGradient>
  </defs>
  
  <!-- Full bleed background for maskable icon -->
  <rect width="512" height="512" fill="url(#maskableGradient)"/>
  
  <!-- Icon centered with safe area (40% of total size) -->
  <g transform="translate(256,256) scale(0.4) translate(-256,-256)">
    <path d="M362 298C370.28 298 378.36 299.72 386 302.36V224L322 160H192C177.64 160 166 171.64 166 186V426C166 440.36 177.64 452 192 452H313.72C307.6 440.48 304 427.2 304 413C304 377.52 332.52 349 368 349M304 181L373 250H304V181M502 426L458 470L414 426H440V362H476V426H502M413 394H396V458H360V394H337L382 349L413 394Z" 
          fill="#1A1A1A"/>
  </g>
</svg>